<svg width="32" height="32" viewBox="0 0 32 32" fill="none" xmlns="http://www.w3.org/2000/svg">
<rect width="32" height="32" rx="5" fill="#2D3142"/>
<path d="M4.94922 5.29443H9.88099C12.5242 5.29443 14.667 7.43718 14.667 10.0804V10.0804C14.667 12.7236 12.5242 14.8664 9.88099 14.8664H4.94922V5.29443Z" fill="#EF8354"/>
<path d="M4.94922 17.1338H5.09502C10.3815 17.1338 14.667 21.4193 14.667 26.7057V26.7057H4.94922V17.1338Z" fill="#4F5D75"/>
<path d="M17.3516 17.1353V17.1353C20.035 17.1353 22.2104 19.3106 22.2104 21.9941V26.7072V26.7072C19.527 26.7072 17.3516 24.5318 17.3516 21.8483V17.1353Z" fill="#EF8354"/>
<path d="M17.334 5.29199H22.2658C24.909 5.29199 27.0517 7.43474 27.0517 10.078V10.078C27.0517 12.7212 24.909 14.8639 22.2658 14.8639H17.334V5.29199Z" fill="#4F5D75"/>
<rect x="24.3828" y="24.084" width="2.66281" height="2.62286" rx="1.31143" fill="#F8F8F8"/>
</svg>
