<svg width="124" height="66" viewBox="0 0 124 66" fill="none" xmlns="http://www.w3.org/2000/svg">
<path d="M44.8242 7.18408H52.6341C56.8198 7.18408 60.2131 10.5773 60.2131 14.7631V14.7631C60.2131 18.9488 56.8198 22.342 52.6341 22.342H44.8242V7.18408Z" fill="#EF8354"/>
<path d="M44.8242 25.9329H45.0551C53.4266 25.9329 60.2131 32.7193 60.2131 41.0908V41.0908H44.8242V25.9329Z" fill="#4F5D75"/>
<path d="M64.4648 25.9341V25.9341C68.7144 25.9341 72.1593 29.379 72.1593 33.6285V41.092V41.092C67.9098 41.092 64.4648 37.6471 64.4648 33.3976V25.9341Z" fill="#EF8354"/>
<path d="M64.4355 7.17993H72.2454C76.4312 7.17993 79.8244 10.5732 79.8244 14.7589V14.7589C79.8244 18.9447 76.4312 22.3379 72.2454 22.3379H64.4355V7.17993Z" fill="#4F5D75"/>
<rect x="75.5996" y="36.9392" width="4.21678" height="4.15351" rx="2.07676" fill="#F8F8F8"/>
<path d="M16.9865 54.4879C17.3545 54.4879 17.6745 54.4039 17.9465 54.2359C18.2185 54.0599 18.4225 53.8359 18.5585 53.5639C18.7025 53.2839 18.7745 52.9919 18.7745 52.6879C18.7745 52.3759 18.7065 52.0839 18.5705 51.8119C18.4425 51.5319 18.2425 51.3039 17.9705 51.1279C17.6985 50.9519 17.3665 50.8639 16.9745 50.8639H15.9545V57.5359C15.9545 57.8559 15.9945 58.0999 16.0745 58.2679C16.1545 58.4279 16.2425 58.5359 16.3385 58.5919C16.4345 58.6399 16.4825 58.6559 16.4825 58.6399H14.5745C14.5745 58.6559 14.6225 58.6359 14.7185 58.5799C14.8145 58.5239 14.8985 58.4159 14.9705 58.2559C15.0505 58.0959 15.0905 57.8559 15.0905 57.5359V51.5359C15.0905 51.2079 15.0505 50.9599 14.9705 50.7919C14.8985 50.6159 14.8145 50.4999 14.7185 50.4439C14.6225 50.3799 14.5745 50.3599 14.5745 50.3839H16.9505C17.5745 50.3839 18.0865 50.4879 18.4865 50.6959C18.8945 50.8959 19.1865 51.1599 19.3625 51.4879C19.5465 51.8079 19.6385 52.1599 19.6385 52.5439C19.6385 52.8639 19.5625 53.1799 19.4105 53.4919C19.2585 53.7959 19.0385 54.0639 18.7505 54.2959C18.4705 54.5199 18.1425 54.6759 17.7665 54.7639L17.5745 54.7999L19.6865 57.4879C19.9665 57.7999 20.1985 58.0399 20.3825 58.2079C20.5665 58.3759 20.6985 58.4879 20.7785 58.5439C20.8665 58.5999 20.9185 58.6319 20.9345 58.6399H19.5305L16.2665 54.4879H16.9865ZM26.1919 58.7839C25.7599 58.7839 25.3879 58.6799 25.0759 58.4719C24.7639 58.2559 24.5239 57.9799 24.3559 57.6439C24.1959 57.2999 24.1159 56.9359 24.1159 56.5519C24.1159 56.0559 24.2119 55.6279 24.4039 55.2679C24.6039 54.9079 24.8599 54.6359 25.1719 54.4519C25.4839 54.2679 25.8079 54.1759 26.1439 54.1759C26.6239 54.1759 27.0359 54.3519 27.3799 54.7039C27.7319 55.0479 27.9239 55.5279 27.9559 56.1439H24.8359C24.8359 56.5279 24.9079 56.8679 25.0519 57.1639C25.1959 57.4519 25.3879 57.6759 25.6279 57.8359C25.8759 57.9879 26.1439 58.0639 26.4319 58.0639C27.1839 58.0639 27.6919 57.8239 27.9559 57.3439C27.8839 57.7759 27.6879 58.1239 27.3679 58.3879C27.0479 58.6519 26.6559 58.7839 26.1919 58.7839ZM26.0599 54.5719C25.7479 54.5719 25.4799 54.6839 25.2559 54.9079C25.0319 55.1239 24.8959 55.4079 24.8479 55.7599H27.0319C27.0319 55.3919 26.9319 55.1039 26.7319 54.8959C26.5399 54.6799 26.3159 54.5719 26.0599 54.5719ZM32.8086 54.9919C32.9926 54.7439 33.2086 54.5479 33.4566 54.4039C33.7126 54.2519 33.9806 54.1759 34.2606 54.1759C34.6926 54.1759 35.0366 54.3159 35.2926 54.5959C35.5566 54.8679 35.6886 55.2639 35.6886 55.7839V57.4519C35.6886 57.7879 35.7246 58.0439 35.7966 58.2199C35.8686 58.3959 35.9486 58.5159 36.0366 58.5799C36.1246 58.6439 36.1686 58.6639 36.1686 58.6399H34.4406C34.4406 58.6639 34.4846 58.6479 34.5726 58.5919C34.6606 58.5279 34.7406 58.4079 34.8126 58.2319C34.8846 58.0559 34.9206 57.7919 34.9206 57.4399V56.0719C34.9206 55.7999 34.8846 55.5839 34.8126 55.4239C34.7406 55.2639 34.6446 55.1319 34.5246 55.0279C34.3406 54.8759 34.1206 54.7999 33.8646 54.7999C33.5766 54.7999 33.3286 54.8959 33.1206 55.0879C32.9126 55.2719 32.8086 55.5319 32.8086 55.8679V57.4399C32.8086 57.7839 32.8446 58.0439 32.9166 58.2199C32.9886 58.3959 33.0686 58.5159 33.1566 58.5799C33.2526 58.6439 33.3006 58.6639 33.3006 58.6399H31.5726C31.5726 58.6639 31.6166 58.6479 31.7046 58.5919C31.7926 58.5279 31.8686 58.4079 31.9326 58.2319C32.0046 58.0479 32.0406 57.7839 32.0406 57.4399V55.6279C32.0406 55.2919 31.9846 55.0639 31.8726 54.9439C31.7686 54.8159 31.6486 54.7519 31.5126 54.7519L32.8086 54.1759V54.9919ZM43.379 58.7839C43.123 58.7759 42.907 58.7079 42.731 58.5799C42.555 58.4519 42.455 58.3039 42.431 58.1359C42.287 58.3439 42.095 58.5039 41.855 58.6159C41.623 58.7279 41.391 58.7839 41.159 58.7839C40.791 58.7839 40.483 58.6799 40.235 58.4719C39.987 58.2559 39.863 57.9759 39.863 57.6319C39.863 56.7439 40.695 56.2999 42.359 56.2999V56.1679C42.359 55.7279 42.295 55.4039 42.167 55.1959C41.991 54.8999 41.703 54.7519 41.303 54.7519C40.991 54.7519 40.731 54.8439 40.523 55.0279C40.323 55.2119 40.223 55.4519 40.223 55.7479C40.175 55.6679 40.135 55.5959 40.103 55.5319C40.079 55.4679 40.067 55.3799 40.067 55.2679C40.067 54.9799 40.203 54.7279 40.475 54.5119C40.747 54.2879 41.103 54.1759 41.543 54.1759C42.167 54.1759 42.611 54.3839 42.875 54.7999C42.963 54.9279 43.027 55.0879 43.067 55.2799C43.107 55.4719 43.127 55.7239 43.127 56.0359V57.4639C43.127 57.7119 43.195 57.9039 43.331 58.0399C43.475 58.1759 43.675 58.2439 43.931 58.2439H44.087L43.379 58.7839ZM42.359 56.6599C41.719 56.6599 41.287 56.7399 41.063 56.8999C40.839 57.0599 40.727 57.2759 40.727 57.5479C40.727 57.7719 40.787 57.9479 40.907 58.0759C41.027 58.2039 41.187 58.2679 41.387 58.2679C41.539 58.2679 41.683 58.2319 41.819 58.1599C41.955 58.0879 42.071 57.9879 42.167 57.8599C42.295 57.6919 42.359 57.4639 42.359 57.1759V56.6599ZM48.8797 58.7839C48.4877 58.7839 48.1917 58.6519 47.9917 58.3879C47.7917 58.1159 47.6917 57.7919 47.6917 57.4159V54.7519H47.0197L48.4597 53.1199V54.2719H49.9957V54.7519H48.4597V57.2839C48.4597 57.5879 48.5397 57.8199 48.6997 57.9799C48.8597 58.1319 49.0437 58.2079 49.2517 58.2079C49.4117 58.2079 49.5677 58.1599 49.7197 58.0639C49.8717 57.9679 49.9957 57.8359 50.0917 57.6679C49.9717 58.4119 49.5677 58.7839 48.8797 58.7839ZM53.4963 56.5879C53.4963 56.1719 53.5963 55.7799 53.7963 55.4119C54.0043 55.0359 54.2883 54.7359 54.6483 54.5119C55.0083 54.2879 55.4083 54.1759 55.8483 54.1759C56.2723 54.1759 56.6563 54.2759 57.0003 54.4759C57.3443 54.6679 57.6123 54.9319 57.8043 55.2679C58.0043 55.6039 58.1043 55.9719 58.1043 56.3719C58.1043 56.7879 58.0003 57.1839 57.7923 57.5599C57.5923 57.9279 57.3123 58.2239 56.9523 58.4479C56.5923 58.6719 56.1923 58.7839 55.7523 58.7839C55.3283 58.7839 54.9443 58.6879 54.6003 58.4959C54.2563 58.2959 53.9843 58.0279 53.7843 57.6919C53.5923 57.3559 53.4963 56.9879 53.4963 56.5879ZM57.2403 56.7199C57.2403 56.3839 57.1763 56.0519 57.0483 55.7239C56.9203 55.3959 56.7403 55.1279 56.5083 54.9199C56.2763 54.7119 56.0083 54.6079 55.7043 54.6079C55.2803 54.6079 54.9483 54.7679 54.7083 55.0879C54.4763 55.4079 54.3603 55.7919 54.3603 56.2399C54.3603 56.5759 54.4243 56.9079 54.5523 57.2359C54.6803 57.5639 54.8603 57.8319 55.0923 58.0399C55.3243 58.2479 55.5923 58.3519 55.8963 58.3519C56.3203 58.3519 56.6483 58.1919 56.8803 57.8719C57.1203 57.5519 57.2403 57.1679 57.2403 56.7199ZM73.125 52.6159C73.125 53.0799 73.013 53.4959 72.789 53.8639C72.573 54.2239 72.261 54.5079 71.853 54.7159C71.445 54.9239 70.965 55.0279 70.413 55.0279C70.077 55.0279 69.717 54.9919 69.333 54.9199V57.5359C69.333 57.8479 69.373 58.0879 69.453 58.2559C69.533 58.4159 69.621 58.5239 69.717 58.5799C69.813 58.6359 69.861 58.6559 69.861 58.6399H67.953C67.953 58.6559 68.001 58.6359 68.097 58.5799C68.193 58.5239 68.277 58.4159 68.349 58.2559C68.429 58.0959 68.469 57.8559 68.469 57.5359V51.5239C68.469 51.2039 68.429 50.9599 68.349 50.7919C68.277 50.6239 68.193 50.5119 68.097 50.4559C68.001 50.3919 67.953 50.3679 67.953 50.3839H70.305C70.713 50.3839 71.049 50.4119 71.313 50.4679C71.577 50.5159 71.809 50.5919 72.009 50.6959C72.369 50.8799 72.645 51.1479 72.837 51.4999C73.029 51.8439 73.125 52.2159 73.125 52.6159ZM72.201 52.7719C72.201 52.2039 72.025 51.7439 71.673 51.3919C71.321 51.0399 70.853 50.8639 70.269 50.8639H69.333V54.4519C69.677 54.5159 70.037 54.5479 70.413 54.5479C70.973 54.5479 71.409 54.3879 71.721 54.0679C72.041 53.7399 72.201 53.3079 72.201 52.7719ZM79.9872 57.9439C79.5872 58.5039 79.0952 58.7839 78.5112 58.7839C78.1032 58.7839 77.7672 58.6519 77.5032 58.3879C77.2392 58.1159 77.1072 57.7039 77.1072 57.1519V55.4479C77.1072 55.1199 77.0552 54.8679 76.9512 54.6919C76.8552 54.5159 76.7432 54.3959 76.6152 54.3319C76.4872 54.2679 76.4232 54.2479 76.4232 54.2719H77.8752V56.9719C77.8752 57.3479 77.9752 57.6359 78.1752 57.8359C78.3832 58.0359 78.6272 58.1359 78.9072 58.1359C79.1872 58.1359 79.4352 58.0439 79.6512 57.8599C79.8752 57.6679 79.9872 57.4199 79.9872 57.1159V55.3639C79.9872 55.0519 79.9472 54.8159 79.8672 54.6559C79.7872 54.4959 79.6952 54.3879 79.5912 54.3319C79.4872 54.2759 79.4352 54.2559 79.4352 54.2719H80.7552V57.2839C80.7552 57.6199 80.8072 57.8519 80.9112 57.9799C81.0232 58.0999 81.1472 58.1599 81.2832 58.1599H81.3552L79.9872 58.7839V57.9439ZM86.9096 58.7839C86.4776 58.7839 86.1056 58.6799 85.7936 58.4719C85.4816 58.2559 85.2416 57.9799 85.0736 57.6439C84.9136 57.2999 84.8336 56.9359 84.8336 56.5519C84.8336 56.0559 84.9296 55.6279 85.1216 55.2679C85.3216 54.9079 85.5776 54.6359 85.8896 54.4519C86.2016 54.2679 86.5256 54.1759 86.8616 54.1759C87.3416 54.1759 87.7536 54.3519 88.0976 54.7039C88.4496 55.0479 88.6416 55.5279 88.6736 56.1439H85.5536C85.5536 56.5279 85.6256 56.8679 85.7696 57.1639C85.9136 57.4519 86.1056 57.6759 86.3456 57.8359C86.5936 57.9879 86.8616 58.0639 87.1496 58.0639C87.9016 58.0639 88.4096 57.8239 88.6736 57.3439C88.6016 57.7759 88.4056 58.1239 88.0856 58.3879C87.7656 58.6519 87.3736 58.7839 86.9096 58.7839ZM86.7776 54.5719C86.4656 54.5719 86.1976 54.6839 85.9736 54.9079C85.7496 55.1239 85.6136 55.4079 85.5656 55.7599H87.7496C87.7496 55.3919 87.6496 55.1039 87.4496 54.8959C87.2576 54.6799 87.0336 54.5719 86.7776 54.5719ZM93.5263 54.9919C93.7103 54.7439 93.9263 54.5479 94.1743 54.4039C94.4303 54.2519 94.6983 54.1759 94.9783 54.1759C95.4103 54.1759 95.7543 54.3159 96.0103 54.5959C96.2743 54.8679 96.4063 55.2639 96.4063 55.7839V57.4519C96.4063 57.7879 96.4423 58.0439 96.5143 58.2199C96.5863 58.3959 96.6663 58.5159 96.7543 58.5799C96.8423 58.6439 96.8863 58.6639 96.8863 58.6399H95.1583C95.1583 58.6639 95.2023 58.6479 95.2903 58.5919C95.3783 58.5279 95.4583 58.4079 95.5303 58.2319C95.6023 58.0559 95.6383 57.7919 95.6383 57.4399V56.0719C95.6383 55.7999 95.6023 55.5839 95.5303 55.4239C95.4583 55.2639 95.3623 55.1319 95.2423 55.0279C95.0583 54.8759 94.8383 54.7999 94.5823 54.7999C94.2943 54.7999 94.0463 54.8959 93.8383 55.0879C93.6303 55.2719 93.5263 55.5319 93.5263 55.8679V57.4399C93.5263 57.7839 93.5623 58.0439 93.6343 58.2199C93.7063 58.3959 93.7863 58.5159 93.8743 58.5799C93.9703 58.6439 94.0183 58.6639 94.0183 58.6399H92.2903C92.2903 58.6639 92.3343 58.6479 92.4223 58.5919C92.5103 58.5279 92.5863 58.4079 92.6503 58.2319C92.7223 58.0479 92.7583 57.7839 92.7583 57.4399V55.6279C92.7583 55.2919 92.7023 55.0639 92.5903 54.9439C92.4863 54.8159 92.3663 54.7519 92.2303 54.7519L93.5263 54.1759V54.9919ZM102.153 58.7839C101.761 58.7839 101.465 58.6519 101.265 58.3879C101.065 58.1159 100.965 57.7919 100.965 57.4159V54.7519H100.293L101.733 53.1199V54.2719H103.269V54.7519H101.733V57.2839C101.733 57.5879 101.813 57.8199 101.973 57.9799C102.133 58.1319 102.317 58.2079 102.525 58.2079C102.685 58.2079 102.841 58.1599 102.993 58.0639C103.145 57.9679 103.269 57.8359 103.365 57.6679C103.245 58.4119 102.841 58.7839 102.153 58.7839ZM108.845 58.7839C108.413 58.7839 108.041 58.6799 107.729 58.4719C107.417 58.2559 107.177 57.9799 107.009 57.6439C106.849 57.2999 106.769 56.9359 106.769 56.5519C106.769 56.0559 106.865 55.6279 107.057 55.2679C107.257 54.9079 107.513 54.6359 107.825 54.4519C108.137 54.2679 108.461 54.1759 108.797 54.1759C109.277 54.1759 109.689 54.3519 110.033 54.7039C110.385 55.0479 110.577 55.5279 110.609 56.1439H107.489C107.489 56.5279 107.561 56.8679 107.705 57.1639C107.849 57.4519 108.041 57.6759 108.281 57.8359C108.529 57.9879 108.797 58.0639 109.085 58.0639C109.837 58.0639 110.345 57.8239 110.609 57.3439C110.537 57.7759 110.341 58.1239 110.021 58.3879C109.701 58.6519 109.309 58.7839 108.845 58.7839ZM108.713 54.5719C108.401 54.5719 108.133 54.6839 107.909 54.9079C107.685 55.1239 107.549 55.4079 107.501 55.7599H109.685C109.685 55.3919 109.585 55.1039 109.385 54.8959C109.193 54.6799 108.969 54.5719 108.713 54.5719Z" fill="#F8F8F8"/>
</svg>
