<svg width="256" height="256" viewBox="0 0 256 256" fill="none" xmlns="http://www.w3.org/2000/svg">
<rect width="256" height="256" fill="#2D3142"/>
<path d="M31.6953 31.4521H76.0436C99.8124 31.4521 119.081 50.7206 119.081 74.4893V74.4893C119.081 98.2581 99.8123 117.526 76.0436 117.526H31.6953V31.4521Z" fill="#EF8354"/>
<path d="M31.6953 137.919H33.0064C80.5439 137.919 119.081 176.456 119.081 223.994V223.994H31.6953V137.919Z" fill="#4F5D75"/>
<path d="M135.869 137.919V137.919C160 137.919 179.562 157.481 179.562 181.612V223.994H172.869C152.435 223.994 135.869 207.428 135.869 186.994V137.919Z" fill="#EF8354"/>
<path d="M135.869 31.4521H180.217C203.986 31.4521 223.255 50.7205 223.255 74.4893V74.4893C223.255 98.2581 203.986 117.526 180.217 117.526H135.869V31.4521Z" fill="#4F5D75"/>
<rect x="200.359" y="200.962" width="23.945" height="23.5857" rx="11.7929" fill="#BFC0C0"/>
</svg>
